<svg width="245" height="262" viewBox="0 0 245 262" fill="none" xmlns="http://www.w3.org/2000/svg">
<path d="M0 100.997L244.5 101C208 154 120.5 129 52 261.5C79.3285 206.202 116.5 122 125.5 117C134.5 112 0 100.997 0 100.997Z" fill="#D9D9D9"/>
<path d="M176.5 204.499L163 163.999L176.5 154.499L210.5 247.999L128 190.499L142 180.999L176.5 204.499Z" fill="#D9D9D9"/>
<path d="M128.57 55.2109L114.286 95.4412L97.7987 94.6209L128.542 -3.63588e-05L158.181 96.0936L141.3 94.9656L128.57 55.2109Z" fill="#D9D9D9"/>
<path d="M75.0621 128.535C75.3843 127.664 76.6157 127.664 76.9379 128.535L78.5413 132.868C78.6426 133.142 78.8584 133.357 79.1321 133.459L83.4655 135.062C84.3361 135.384 84.3361 136.616 83.4655 136.938L79.1321 138.541C78.8584 138.643 78.6426 138.858 78.5413 139.132L76.9379 143.465C76.6157 144.336 75.3843 144.336 75.0621 143.465L73.4587 139.132C73.3574 138.858 73.1416 138.643 72.8679 138.541L68.5345 136.938C67.6639 136.616 67.6639 135.384 68.5345 135.062L72.8679 133.459C73.1416 133.357 73.3574 133.142 73.4587 132.868L75.0621 128.535Z" fill="#D9D9D9"/>
<path d="M50.5621 144.532C50.8843 143.661 52.1157 143.661 52.4379 144.532L58.0927 159.814C58.194 160.087 58.4098 160.303 58.6835 160.404L73.9655 166.059C74.8361 166.381 74.8361 167.613 73.9655 167.935L58.6835 173.59C58.4098 173.691 58.194 173.907 58.0927 174.181L52.4379 189.463C52.1157 190.333 50.8843 190.333 50.5621 189.463L44.9073 174.181C44.806 173.907 44.5902 173.691 44.3165 173.59L29.0345 167.935C28.1639 167.613 28.1639 166.381 29.0345 166.059L44.3165 160.404C44.5902 160.303 44.806 160.087 44.9073 159.814L50.5621 144.532Z" fill="#D9D9D9"/>
</svg>
